<?xml version="1.0" encoding="UTF-8" standalone="no"?>
<!-- Created with Inkscape (http://www.inkscape.org/) -->

<svg
   xmlns:dc="http://purl.org/dc/elements/1.1/"
   xmlns:cc="http://creativecommons.org/ns#"
   xmlns:rdf="http://www.w3.org/1999/02/22-rdf-syntax-ns#"
   xmlns:svg="http://www.w3.org/2000/svg"
   xmlns="http://www.w3.org/2000/svg"
   xmlns:inkscape="http://www.inkscape.org/namespaces/inkscape"
   version="1.1"
   width="1771.65"
   height="316.64999"
   id="svg2"
   xml:space="preserve"><metadata
     id="metadata8"><rdf:RDF><cc:Work
         rdf:about=""><dc:format>image/svg+xml</dc:format><dc:type
           rdf:resource="http://purl.org/dc/dcmitype/StillImage" /></cc:Work></rdf:RDF></metadata><defs
     id="defs6" /><g
     transform="matrix(1.25,0,0,-1.25,0,316.65)"
     id="g10"><g
       transform="scale(0.1,0.1)"
       id="g12"><path
         d="m 11999.7,811.031 c 183.8,0 333.4,154.938 333.4,346.559 0,194.3 -149.6,349.22 -333.4,349.22 -183.8,0 -333.4,-154.92 -333.4,-349.22 0,-191.621 152.2,-346.559 333.4,-346.559 z M 11472,1680.11 c 141.7,141.77 328.1,220.53 519.8,220.53 204.8,0 380.7,-70.91 522.5,-204.78 149.6,-141.77 231.1,-336.08 231.1,-527.74 0,-212.671 -70.9,-388.608 -212.7,-530.37 -144.4,-144.41 -323,-220.531 -535.6,-220.531 -215.3,0 -388.6,73.5 -533,225.781 -136.6,141.781 -207.4,322.969 -207.4,519.85 0,196.93 76.1,378.08 215.3,517.26"
         inkscape:connector-curvature="0"
         id="path14"
         style="fill:#00DCFE;fill-opacity:1;fill-rule:nonzero;stroke:none" /><path
         d="m 8960.26,811.031 c 183.78,0 333.44,154.938 333.44,346.559 0,194.3 -149.66,349.22 -333.44,349.22 -183.78,0 -333.43,-154.92 -333.43,-349.22 0,-191.621 152.29,-346.559 333.43,-346.559 z m -527.74,869.079 c 141.78,141.77 328.18,220.53 519.85,220.53 204.83,0 380.72,-70.91 522.48,-204.78 149.66,-141.77 231.1,-336.08 231.1,-527.74 0,-212.671 -70.91,-388.608 -212.68,-530.37 -144.44,-144.41 -322.96,-220.531 -535.63,-220.531 -215.32,0 -388.57,73.5 -533.01,225.781 -136.5,141.781 -207.41,322.969 -207.41,519.85 0,196.93 76.17,378.08 215.3,517.26"
         inkscape:connector-curvature="0"
         id="path16"
         style="fill:#00DCFE;fill-opacity:1;fill-rule:nonzero;stroke:none" /><path
         d="m 3919.71,456.68 412.2,0 0,1952.85 -412.2,-85.96 0,-1866.89"
         inkscape:connector-curvature="0"
         id="path18"
         style="fill:#00DCFE;fill-opacity:1;fill-rule:nonzero;stroke:none" /><path
         d="m 3290.35,456.828 412.207,0 0,1409.91 -412.207,0 0,-1409.91 z"
         inkscape:connector-curvature="0"
         id="path20"
         style="fill:#00DCFE;fill-opacity:1;fill-rule:nonzero;stroke:none" /><path
         d="m 3496.46,2533.19 c -139.67,0 -252.91,-113.23 -252.91,-252.9 0,-139.67 113.24,-252.89 252.91,-252.89 139.66,0 252.9,113.22 252.9,252.89 0,139.67 -113.24,252.9 -252.9,252.9"
         inkscape:connector-curvature="0"
         id="path22"
         style="fill:#00DCFE;fill-opacity:1;fill-rule:nonzero;stroke:none" /><path
         d="m 5189.06,1044.94 -265.17,821.79 -459.47,0 L 4981.66,543.469 4781.26,0 l 417.46,0 735.99,1866.73 -446.35,0 -299.3,-821.79"
         inkscape:connector-curvature="0"
         id="path24"
         style="fill:#00DCFE;fill-opacity:1;fill-rule:nonzero;stroke:none" /><path
         d="m 779.781,828.262 c -212.668,0 -364.945,149.668 -364.945,346.578 0,189.03 152.277,349.19 349.191,349.19 194.293,0 343.943,-152.28 343.943,-354.44 0,-194.301 -149.65,-341.328 -328.189,-341.328 z m 616.809,338.918 c 0,155.59 37.79,301.53 110.46,431.7 l 0,814.51 -414.83,-85.95 0,-614.38 C 997.699,1833.84 866.422,1891.6 695.762,1891.6 517.227,1891.6 357.07,1825.97 225.797,1697.32 78.7695,1555.54 0,1374.37 0,1172.2 0,951.66 84.0156,762.629 246.797,618.219 c 123.398,-110.27 270.43,-165.387 441.09,-165.387 168.031,0 294.062,44.629 417.453,165.387 l 0,-157.52 401.71,0 0,266.949 c -72.3,131.102 -110.46,279.142 -110.46,439.532"
         inkscape:connector-curvature="0"
         id="path26"
         style="fill:#00DCFE;fill-opacity:1;fill-rule:nonzero;stroke:none" /><path
         d="m 8138.47,1556.71 c -17.55,75.19 -47.18,134.69 -92.27,187.41 -78.38,91.64 -188.77,134.76 -321.7,146.15 -108.02,9.26 -201.11,-4.59 -290.84,-51.95 -97.11,-51.26 -207.36,-171.12 -207.36,-171.12 0,0 -109.56,225.76 -383.7,225.76 -193.48,0 -311.53,-82.1 -390.83,-215.27 l 0,189.04 -375.44,0 0,-1409.902 393.83,0 0,742.312 c 0,154.49 35.95,307.83 244.55,307.83 179.88,0 193.9,-146.54 193.9,-268.22 l 0,-781.922 406.97,0 0,747.132 c 0,238.09 103.51,302.95 246.14,302.95 115.09,0 192.31,-52.01 192.31,-268.16 l 0,-781.922 404.33,0 0,268.711 c -72.29,132.441 -110.41,281.161 -110.41,440.181 0,137.6 31.89,270.27 90.52,390.99"
         inkscape:connector-curvature="0"
         id="path28"
         style="fill:#00DCFE;fill-opacity:1;fill-rule:nonzero;stroke:none" /><path
         d="m 10382.7,2409.53 -420.08,-85.96 0,-464.02 -178.54,0 0,-408.05 178.54,0 0,-994.672 420.08,0 0,994.672 186.4,0 0,408.05 -186.4,0 0,549.98"
         inkscape:connector-curvature="0"
         id="path30"
         style="fill:#00DCFE;fill-opacity:1;fill-rule:nonzero;stroke:none" /><path
         d="m 10957.4,2027.4 c 139.7,0 252.9,113.22 252.9,252.89 0,139.67 -113.2,252.9 -252.9,252.9 -139.7,0 -252.9,-113.23 -252.9,-252.9 0,-139.67 113.2,-252.89 252.9,-252.89"
         inkscape:connector-curvature="0"
         id="path32"
         style="fill:#00DCFE;fill-opacity:1;fill-rule:nonzero;stroke:none" /><path
         d="m 11163.5,1523.53 0,343.2 -412.2,0 0,-1409.902 412.2,0 0,336.332 c -49.7,114.059 -76.1,238.28 -76.1,369.71 0,126.13 26.6,248.18 76.1,360.66"
         inkscape:connector-curvature="0"
         id="path34"
         style="fill:#00DCFE;fill-opacity:1;fill-rule:nonzero;stroke:none" /><path
         d="m 13692.8,1892.98 c -186.5,0 -317.7,-73.51 -404.4,-215.29 l 5.3,189.04 -393.9,0 0,-1409.902 407,0 0,764.032 c 0,189.04 86.6,286.18 249.4,286.18 160.2,0 202.2,-89.27 202.2,-286.18 l 0,-764.032 414.8,0 0,929.442 c 0,322.93 -189,506.71 -480.4,506.71"
         inkscape:connector-curvature="0"
         id="path36"
         style="fill:#00DCFE;fill-opacity:1;fill-rule:nonzero;stroke:none" /><path
         d="m 2345.69,824.371 c 178.51,0 328.17,147.07 328.17,341.329 0,202.19 -149.66,354.43 -343.93,354.43 -196.91,0 -349.2,-160.13 -349.2,-349.18 0,-196.911 152.29,-346.579 364.96,-346.579 z M 2671.23,614.328 C 2547.84,493.57 2421.81,448.941 2253.78,448.941 c -170.66,0 -317.69,55.161 -441.07,165.387 -162.77,144.461 -246.79,333.481 -246.79,554.012 0,202.13 78.75,383.32 225.78,525.07 131.28,128.67 291.42,194.3 469.97,194.3 170.64,0 301.93,-57.74 396.45,-178.55 l 0,157.55 414.81,0 0,-1409.882 -401.7,0 0,157.5"
         inkscape:connector-curvature="0"
         id="path38"
         style="fill:#00DCFE;fill-opacity:1;fill-rule:nonzero;stroke:none" /></g></g></svg>