<?xml version="1.0" encoding="utf-8"?>
<!-- Generator: Adobe Illustrator 15.0.0, SVG Export Plug-In . SVG Version: 6.00 Build 0)  -->
<!DOCTYPE svg PUBLIC "-//W3C//DTD SVG 1.1//EN" "http://www.w3.org/Graphics/SVG/1.1/DTD/svg11.dtd">
<svg version="1.1" id="svg2" xmlns:svg="http://www.w3.org/2000/svg"
	 xmlns="http://www.w3.org/2000/svg" xmlns:xlink="http://www.w3.org/1999/xlink" x="0px" y="0px" width="15.552px"
	 height="13.458px" viewBox="0.176 6.317 15.552 13.458" enable-background="new 0.176 6.317 15.552 13.458" xml:space="preserve">
<path id="path4" fill="#1AB7EA" d="M15.72,9.431c-0.069,1.514-1.127,3.588-3.172,6.219c-2.114,2.75-3.903,4.125-5.367,4.125
	c-0.906,0-1.673-0.838-2.3-2.512c-0.418-1.535-0.837-3.07-1.255-4.604c-0.465-1.675-0.964-2.512-1.498-2.512
	c-0.116,0-0.524,0.245-1.221,0.733L0.176,9.937C0.943,9.263,1.7,8.588,2.445,7.912c1.024-0.884,1.792-1.35,2.305-1.397
	c1.21-0.116,1.955,0.712,2.235,2.483c0.302,1.912,0.511,3.102,0.628,3.566c0.349,1.586,0.733,2.377,1.152,2.377
	c0.326,0,0.815-0.515,1.467-1.543c0.651-1.028,1-1.812,1.047-2.349c0.093-0.888-0.256-1.333-1.047-1.333
	c-0.373,0-0.757,0.085-1.151,0.255c0.764-2.504,2.224-3.721,4.38-3.652C15.059,6.367,15.812,7.404,15.72,9.431"/>
</svg>
