<?xml version="1.0" encoding="utf-8"?>
<!-- Generator: Adobe Illustrator 15.0.0, SVG Export Plug-In . SVG Version: 6.00 Build 0)  -->
<!DOCTYPE svg PUBLIC "-//W3C//DTD SVG 1.1//EN" "http://www.w3.org/Graphics/SVG/1.1/DTD/svg11.dtd">
<svg version="1.1"
	 id="svg241" sodipodi:docname="wistia.svg" inkscape:version="0.92.0 r15299" xmlns:sodipodi="http://sodipodi.sourceforge.net/DTD/sodipodi-0.dtd" xmlns:inkscape="http://www.inkscape.org/namespaces/inkscape" xmlns:rdf="http://www.w3.org/1999/02/22-rdf-syntax-ns#" xmlns:svg="http://www.w3.org/2000/svg" xmlns:cc="http://creativecommons.org/ns#" xmlns:dc="http://purl.org/dc/elements/1.1/"
	 xmlns="http://www.w3.org/2000/svg" xmlns:xlink="http://www.w3.org/1999/xlink" x="0px" y="0px" width="42.107px"
	 height="28.041px" viewBox="0 0 42.107 28.041" enable-background="new 0 0 42.107 28.041" xml:space="preserve">
<sodipodi:namedview  units="px" id="base" inkscape:window-width="1280" borderopacity="1.0" bordercolor="#666666" pagecolor="#ffffff" inkscape:pageopacity="0.0" inkscape:pageshadow="2" inkscape:window-height="744" showgrid="false" fit-margin-top="0" inkscape:zoom="5.1488379" fit-margin-left="0" fit-margin-right="0" fit-margin-bottom="0" inkscape:cx="87.107035" inkscape:cy="13.520341" inkscape:window-x="-4" inkscape:window-y="-4" inkscape:window-maximized="1" inkscape:current-layer="layer1" inkscape:document-units="mm">
	</sodipodi:namedview>
<g id="layer1" transform="translate(91.838736,-261.40816)" inkscape:label="Layer 1" inkscape:groupmode="layer">
	<g id="g297" transform="translate(0.13229129,-0.13229077)">
		<path id="path261" inkscape:connector-curvature="0" fill="#0D8CE6" d="M-58.021,272.556c0,0-0.77,1.54-4.65,4
			c-1.65,1-5.08,2.14-9.48,2.57c-2.38,0.229-6.75,0-8.63,0c-1.88,0-2.75,0.399-4.45,2.31l-6.24,7.06h3.8
			c1.63,0,11.84,0.59,16.37-0.649C-56.581,283.806-58.021,272.556-58.021,272.556z"/>
		<path id="path263" inkscape:connector-curvature="0" fill="#53B9FF" d="M-58.411,268.086c0.71-4.32-1.73-5.5-1.73-5.5
			s0.1,3.51-6.33,4.25c-5.76,0.67-25,0.14-25,0.14l6.18,7.09c1.67,1.92,2.56,2.14,4.44,2.28c2.95,0.121,5.905,0.077,8.85-0.131
			c3.09-0.239,7.53-1.239,10.45-3.52C-59.977,271.593-58.861,269.953-58.411,268.086L-58.411,268.086z"/>
	</g>
</g>
</svg>
