<?xml version="1.0" encoding="utf-8"?>
<!-- Generator: Adobe Illustrator 15.0.0, SVG Export Plug-In . SVG Version: 6.00 Build 0)  -->
<!DOCTYPE svg PUBLIC "-//W3C//DTD SVG 1.1//EN" "http://www.w3.org/Graphics/SVG/1.1/DTD/svg11.dtd">
<svg version="1.1" xmlns="http://www.w3.org/2000/svg" xmlns:xlink="http://www.w3.org/1999/xlink" x="0px" y="0px" width="2048px"
	 height="2048px" viewBox="0 0 2048 2048" enable-background="new 0 0 2048 2048" xml:space="preserve">
<g id="Calque_1" display="none">
	
		<image display="inline" overflow="visible" width="310" height="310" xlink:href="icon.png"  transform="matrix(5.175 0 0 5.175 221.876 221.876)">
	</image>
</g>
<g id="Calque_2">
	<rect x="505.006" fill="#E5E1DA" width="1037.987" height="2048"/>
	<polygon fill="#53544D" points="252.003,0 -1,0 -1,268.604 252.003,268.604 252.003,593.132 -1,593.132 -1,861.736 
		252.003,861.736 252.003,1186.265 -1,1186.265 -1,1454.867 252.003,1454.867 252.003,1779.396 -1,1779.396 -1,2048 252.003,2048 
		505.006,2048 505.006,1779.396 505.006,1454.867 505.006,1186.265 505.006,861.736 505.006,593.132 505.006,268.604 505.006,0 	"/>
	<polygon fill="#53544D" points="1794.996,0 2048,0 2048,268.604 1794.996,268.604 1794.996,593.132 2048,593.132 2048,861.736 
		1794.996,861.736 1794.996,1186.265 2048,1186.265 2048,1454.867 1794.996,1454.867 1794.996,1779.396 2048,1779.396 2048,2048 
		1794.996,2048 1541.993,2048 1541.993,1779.396 1541.993,1454.867 1541.993,1186.265 1541.993,861.736 1541.993,593.132 
		1541.993,268.604 1541.993,0 	"/>
</g>
<g id="Calque_3">
	<g>
		<path fill="#53544D" d="M739.76,754.635h108.512l54.894-210.641h168.513l-56.171,210.641h125.107l54.895-210.641h168.513
			l-56.171,210.641h105.959l-24.256,168.513h-125.108l-48.511,185.109h118.725l-24.255,168.512h-139.151l-58.724,227.237H945.294
			l58.724-227.237H878.91l-58.724,227.237H652.95l58.724-227.237h-75.32l24.255-168.512h95.746l47.234-185.109h-88.086
			L739.76,754.635z M923.592,1108.257h125.107l47.235-185.109H972.103L923.592,1108.257z"/>
	</g>
</g>
</svg>
